<?xml version="1.0" standalone="no"?>
<!DOCTYPE svg PUBLIC "-//W3C//DTD SVG 1.1//EN"
  "http://www.w3.org/Graphics/SVG/1.1/DTD/svg11.dtd">
<svg version="1.1" xmlns="http://www.w3.org/2000/svg" xmlns:xlink="http://www.w3.org/1999/xlink" width="1280" height="720" viewBox="-150 0 1280 1280" id="ccdiagram"><filter id="grayscale"><feColorMatrix type="matrix" values="0.3333 0.3333 0.3333 0 0 0.3333 0.3333 0.3333 0 0 0.3333 0.3333 0.3333 0 0 0 0 0 1 0"></feColorMatrix></filter><defs><style type="text/css">@import url('https://fonts.googleapis.com/css?family=Open+Sans:400,700|Inconsolata:400');</style></defs><g><g pointer-events="auto"><g opacity="1"><g><g><polygon points="225 405, 765 405, 765 675, 225 675" fill="rgba(0, 0, 0, 0)" stroke-width="0" stroke="#818181"></polygon></g></g></g></g><g pointer-events="auto"></g><g></g><g pointer-events="auto"><g opacity="1"><g id="c1b2f21c-60fd-4564-b668-7b85f1ac063b"><g><g><polygon points="900 855, 945 810, 945 270, 900 225, 45 225, 45 810, 90 855" stroke="#4286c5" stroke-width="8" fill="none"></polygon></g><g><polygon points="45 225, 0 225, 0 540, 45 585" stroke="#4286c5" stroke-width="8" fill="#4286c5"></polygon><text font-family="Inconsolata" font-size="20pt" font-weight="bold" fill="#ffffff" transform="translate(32 268) rotate(270)" text-anchor="end">stack</text><g transform="translate(6 230) "><svg width="34" height="32" style="fill: rgb(255, 255, 255);"><svg xmlns="http://www.w3.org/2000/svg" width="34" height="32" viewBox="0 0 34 32"><path d="M34.286 20.571a6.858 6.858 0 0 1-6.857 6.857H8c-4.411 0-8-3.589-8-8a7.993 7.993 0 0 1 4.607-7.232c-.018-.25-.036-.518-.036-.768a9.137 9.137 0 0 1 9.143-9.143c3.821 0 7.089 2.339 8.464 5.679a4.439 4.439 0 0 1 2.964-1.107 4.58 4.58 0 0 1 4.571 4.571 4.49 4.49 0 0 1-.732 2.464c3.036.714 5.304 3.429 5.304 6.679z"></path></svg></svg></g></g></g></g></g></g><g></g><g pointer-events="auto"></g><g pointer-events="auto"></g><g pointer-events="none"></g><g pointer-events="auto"><g><g cursor="cell"><line x1="540" y1="495" x2="585" y2="495" stroke="red" stroke-width="14" opacity="0"></line><line x1="540" y1="495" x2="585" y2="495" stroke="#9e9e9e" stroke-width="8" stroke-linecap="round"></line></g></g><g><g cursor="cell"><line x1="135" y1="720" x2="135" y2="540" stroke="red" stroke-width="10" opacity="0"></line><line x1="135" y1="720" x2="135" y2="540" stroke="#4286c5" stroke-width="4" stroke-dasharray="10,7.5" stroke-linecap="butt"></line></g></g><g><g cursor="cell"><line x1="405" y1="945" x2="405" y2="855" stroke="red" stroke-width="10" opacity="0"></line><line x1="405" y1="945" x2="405" y2="855" stroke="#4286c5" stroke-width="4" stroke-dasharray="10,7.5" stroke-linecap="butt"></line></g></g><g><g cursor="cell"><line x1="540" y1="675" x2="585" y2="675" stroke="red" stroke-width="14" opacity="0"></line><line x1="540" y1="675" x2="585" y2="675" stroke="#9e9e9e" stroke-width="8" stroke-linecap="round"></line></g></g><g><g cursor="cell"><line x1="405" y1="675" x2="450" y2="675" stroke="red" stroke-width="14" opacity="0"></line><line x1="405" y1="675" x2="450" y2="675" stroke="#9e9e9e" stroke-width="8" stroke-linecap="round"></line></g></g><g><g cursor="cell"><line x1="585" y1="495" x2="810" y2="495" stroke="red" stroke-width="14" opacity="0"></line><line x1="585" y1="495" x2="810" y2="495" stroke="#9e9e9e" stroke-width="8" stroke-linecap="round"></line></g></g><g><g cursor="cell"><line x1="540" y1="315" x2="585" y2="315" stroke="red" stroke-width="14" opacity="0"></line><line x1="540" y1="315" x2="585" y2="315" stroke="#9e9e9e" stroke-width="8" stroke-linecap="round"></line></g></g><g><g cursor="cell"><line x1="180" y1="495" x2="405" y2="495" stroke="red" stroke-width="14" opacity="0"></line><line x1="180" y1="495" x2="405" y2="495" stroke="#9e9e9e" stroke-width="8" stroke-linecap="round"></line></g></g><g><g cursor="cell"><line x1="765" y1="765" x2="765" y2="495" stroke="red" stroke-width="10" opacity="0"></line><line x1="765" y1="765" x2="765" y2="495" stroke="#4286c5" stroke-width="4" stroke-dasharray="10,7.5" stroke-linecap="butt"></line></g></g><g><g cursor="cell"><line x1="90" y1="495" x2="-89" y2="495" stroke="red" stroke-width="14" opacity="0"></line><line x1="90" y1="495" x2="-89" y2="495" stroke="#9e9e9e" stroke-width="8" stroke-linecap="round"></line><polygon points="-112 495, -70 515, -82 495, -70 475, -112 495" stroke-linejoin="round" fill="#9e9e9e" stroke="#9e9e9e" stroke-width="1"></polygon></g></g><g><g cursor="cell"><line x1="405" y1="495" x2="405" y2="315" stroke="red" stroke-width="14" opacity="0"></line><line x1="405" y1="495" x2="405" y2="315" stroke="#9e9e9e" stroke-width="8" stroke-linecap="round"></line></g></g><g><g cursor="cell"><line x1="405" y1="315" x2="450" y2="315" stroke="red" stroke-width="14" opacity="0"></line><line x1="405" y1="315" x2="450" y2="315" stroke="#9e9e9e" stroke-width="8" stroke-linecap="round"></line></g></g><g><g cursor="cell"><line x1="585" y1="315" x2="585" y2="495" stroke="red" stroke-width="14" opacity="0"></line><line x1="585" y1="315" x2="585" y2="495" stroke="#9e9e9e" stroke-width="8" stroke-linecap="round"></line></g></g><g><g cursor="cell"><line x1="405" y1="495" x2="405" y2="675" stroke="red" stroke-width="14" opacity="0"></line><line x1="405" y1="495" x2="405" y2="675" stroke="#9e9e9e" stroke-width="8" stroke-linecap="round"></line></g></g><g><g cursor="cell"><line x1="405" y1="495" x2="450" y2="495" stroke="red" stroke-width="14" opacity="0"></line><line x1="405" y1="495" x2="450" y2="495" stroke="#9e9e9e" stroke-width="8" stroke-linecap="round"></line></g></g><g><g cursor="cell"><line x1="585" y1="675" x2="585" y2="495" stroke="red" stroke-width="14" opacity="0"></line><line x1="585" y1="675" x2="585" y2="495" stroke="#9e9e9e" stroke-width="8" stroke-linecap="round"></line></g></g><g><g cursor="cell"><line x1="473" y1="945" x2="405" y2="945" stroke="red" stroke-width="10" opacity="0"></line><line x1="473" y1="945" x2="405" y2="945" stroke="#4286c5" stroke-width="4" stroke-dasharray="10,7.5" stroke-linecap="butt"></line></g></g><g><g cursor="cell"><line x1="765" y1="945" x2="473" y2="945" stroke="red" stroke-width="10" opacity="0"></line><line x1="765" y1="945" x2="473" y2="945" stroke="#4286c5" stroke-width="4" stroke-dasharray="10,7.5" stroke-linecap="butt"></line></g></g></g><g pointer-events="auto"><g opacity="1"><g id="ea2c07cc-a4b2-4729-8a5c-69a75d515e28" transform="translate(0 0)"><svg x="450" y="270" height="90" id="svg15" width="90" version="1.1"><defs id="defs4"></defs><g id="Reference" fill-opacity="1" transform="scale(1.2)"><path id="Orange_Light_BG" d="M0 0h75v75H0z" fill="#d86613" data-name="Orange Light BG"></path><g id="Product_Icon" fill="#ffffff" data-name="Product Icon"><path class="cls-2" id="path9" d="M60.5 62.5H48.18a1 1 0 0 1-.9-.57L29.86 25.5h-7.37a1 1 0 0 1-1-1v-11a1 1 0 0 1 1-1h15.4a1 1 0 0 1 .9.57L56.13 49.5h4.37a1 1 0 0 1 1 1v11a1 1 0 0 1-1 1zm-11.69-2H59.5v-9h-4a1 1 0 0 1-.9-.57L37.26 14.5H23.5v9h7a1 1 0 0 1 .9.57z" fill="#ffffff" fill-opacity="1"></path><path class="cls-2" id="path11" d="M27.48 62.5h-13a1 1 0 0 1-.85-.47 1 1 0 0 1-.05-1l13.6-28.41a1 1 0 0 1 .9-.57 1 1 0 0 1 .9.56L35.49 46a1 1 0 0 1 0 .87l-7.1 15a1 1 0 0 1-.91.63zm-11.4-2h10.77l6.63-14-5.39-11.15z" fill="#ffffff" fill-opacity="1"></path></g></g></svg></g></g><g opacity="1"><g id="985cd94c-4bdf-43c9-9f89-48d40aff8139" transform="translate(0 0)"><svg x="90" y="450" height="90" id="svg25" width="90" version="1.1"><defs id="defs4"></defs><g id="Reference" fill-opacity="1" transform="scale(1.2)"><path id="Purple_Light_BG" d="M0 0h75v75H0z" fill="#693cc5" data-name="Purple Light BG"></path><g id="Product_Icon" fill="#ffffff" data-name="Product Icon"><path class="cls-2" id="path9" d="M48.51 61.5a1 1 0 0 1-.59-.19 1 1 0 0 1-.42-.81v-46a1 1 0 0 1 .48-.85 1 1 0 0 1 1-.05l13 6.35a1 1 0 0 1 .56.89v35.34a1 1 0 0 1-.69 1l-13 4.32a1.19 1.19 0 0 1-.34 0zm1-45.39v43l11-3.65v-34z" fill="#ffffff" fill-opacity="1"></path><path class="cls-2" id="path11" d="M26.5 61.5a1.19 1.19 0 0 1-.32 0l-13-4.32a1 1 0 0 1-.68-1V20.84a1 1 0 0 1 .56-.89l13-6.35a1 1 0 0 1 1 .05 1 1 0 0 1 .47.85v46a1 1 0 0 1-.42.81.94.94 0 0 1-.61.19zm-12-6l11 3.65v-43l-11 5.37z" fill="#ffffff" fill-opacity="1"></path><path class="cls-2" id="path13" d="M47.5 27.5h-3v-2h3zm-6 0h-3v-2h3zm-6 0h-3v-2h3zm-6 0h-3v-2h3z" fill="#ffffff" fill-opacity="1"></path><path class="cls-2" id="path15" d="M47.5 49.5h-3v-2h3zm-6 0h-3v-2h3zm-6 0h-3v-2h3zm-6 0h-3v-2h3z" fill="#ffffff" fill-opacity="1"></path><path class="cls-2" id="path17" d="M33.11 40.94l-3.76-3.21a1 1 0 0 1 0-1.52L33.1 33l1.3 1.52L31.54 37l2.86 2.45z" fill="#ffffff" fill-opacity="1"></path><path class="cls-2" id="path19" d="M41.9 40.94l-1.3-1.52L43.46 37l-2.87-2.44 1.3-1.56 3.76 3.2a1 1 0 0 1 0 1.52z" fill="#ffffff" fill-opacity="1"></path><path class="cls-2" id="rect21" d="M31.29 36.5H43.7v2H31.29z" fill="#ffffff" fill-opacity="1" transform="rotate(-71.32 37.488 37.496)"></path></g></g></svg></g></g><g opacity="1"><g id="139b81c2-5fac-40de-941a-69e95e5841dd" transform="translate(0 0)"><svg x="450" y="450" height="90" id="svg15" width="90" version="1.1"><defs id="defs4"></defs><g id="Reference" fill-opacity="1" transform="scale(1.2)"><path id="Orange_Light_BG" d="M0 0h75v75H0z" fill="#d86613" data-name="Orange Light BG"></path><g id="Product_Icon" fill="#ffffff" data-name="Product Icon"><path class="cls-2" id="path9" d="M60.5 62.5H48.18a1 1 0 0 1-.9-.57L29.86 25.5h-7.37a1 1 0 0 1-1-1v-11a1 1 0 0 1 1-1h15.4a1 1 0 0 1 .9.57L56.13 49.5h4.37a1 1 0 0 1 1 1v11a1 1 0 0 1-1 1zm-11.69-2H59.5v-9h-4a1 1 0 0 1-.9-.57L37.26 14.5H23.5v9h7a1 1 0 0 1 .9.57z" fill="#ffffff" fill-opacity="1"></path><path class="cls-2" id="path11" d="M27.48 62.5h-13a1 1 0 0 1-.85-.47 1 1 0 0 1-.05-1l13.6-28.41a1 1 0 0 1 .9-.57 1 1 0 0 1 .9.56L35.49 46a1 1 0 0 1 0 .87l-7.1 15a1 1 0 0 1-.91.63zm-11.4-2h10.77l6.63-14-5.39-11.15z" fill="#ffffff" fill-opacity="1"></path></g></g></svg></g></g><g opacity="1"><g id="00c00da7-9910-4103-a340-1d328e52a40a" transform="translate(0 0)"><svg x="810" y="450" height="90" id="svg21" width="90" version="1.1"><defs id="defs4"></defs><g id="Reference" fill-opacity="1" transform="scale(1.2)"><path id="Blue_Light_BG" d="M0 0h75v75H0z" fill="#3b48cc" data-name="Blue Light BG"></path><g id="Product_Icon" fill="#ffffff" data-name="Product Icon"><path class="cls-2" id="path9" d="M50.25 40.48l-6.61 6.6a16.23 16.23 0 0 0 3.42-1.39 2.58 2.58 0 0 1 1.19 1.8c0 1.83-3.88 3.82-9.64 4.63a42.23 42.23 0 0 1-5.36.38h-1c-8.08-.19-14-2.74-14-5a2.58 2.58 0 0 1 1.19-1.8c3.14 1.75 8.23 2.79 13.81 2.79h.11l.56-2h-.67c-5.5 0-10.6-1.09-13.31-2.81-1.08-.71-1.68-1.48-1.69-2.15V36.9c3.06 2.34 9.16 3.56 15 3.56.79 0 1.58 0 2.35-.07l.57-2c-1 .07-1.93.1-2.92.1-8.58 0-15-2.63-15-5a2.58 2.58 0 0 1 1.19-1.8c2.76 1.55 7 2.52 11.81 2.74l.05-2c-4.73-.23-9-1.25-11.36-2.76-1.07-.69-1.67-1.47-1.69-2.15V22.9c3.06 2.34 9.16 3.56 15 3.56h.22l1.06-2h-1.28c-8.58 0-15-2.63-15-5s6.42-5 15-5a36 36 0 0 1 8.58 1h5.49c-3-1.83-8.18-3-14.07-3-8.24 0-17 2.44-17 7v8.05a4.06 4.06 0 0 0 1.51 2.95 4.07 4.07 0 0 0-1.51 3v8a4.06 4.06 0 0 0 1.51 3 4.07 4.07 0 0 0-1.51 3v8a1.25 1.25 0 0 0 0 .21c.27 4.39 8.87 6.75 17 6.75s16.73-2.36 17-6.77a.75.75 0 0 0 0-.21v-8a4 4 0 0 0-1.51-3 4.06 4.06 0 0 0 1.51-3zm-2 15c0 2.36-6.42 5-15 5s-15-2.61-15-5v-4.6c3.06 2.32 9.16 3.54 15 3.54s11.94-1.22 15-3.54z" fill="#ffffff" fill-opacity="1"></path><circle class="cls-2" id="circle11" cx="21.25" cy="27.52" fill="#ffffff" fill-opacity="1" r="1.25"></circle><circle class="cls-2" id="circle13" cx="21.25" cy="41.52" fill="#ffffff" fill-opacity="1" r="1.25"></circle><circle class="cls-2" id="circle15" cx="21.25" cy="55.52" fill="#ffffff" fill-opacity="1" r="1.25"></circle><path class="cls-2" id="path17" d="M35.75 51.48a1 1 0 0 1-.5-.14 1 1 0 0 1-.46-1.15l5.62-18.71h-5.66a1 1 0 0 1-.89-1.48l6-12a1 1 0 0 1 .89-.55h13a1 1 0 0 1 1 1.31l-2.56 7.69h5.61a1 1 0 0 1 .72 1.69l-22 23a1 1 0 0 1-.77.34zm.62-22h5.38a1 1 0 0 1 .8.4 1 1 0 0 1 .16.88l-4.81 16 17.51-18.3h-4.66a1 1 0 0 1-1-1.32l2.56-7.68h-11z" fill="#ffffff" fill-opacity="1"></path></g></g></svg></g></g><g opacity="1"><g id="667087a1-f258-4ba0-ada7-381b8eefe9ea" transform="translate(0 0)"><svg x="450" y="630" height="90" id="svg15" width="90" version="1.1"><defs id="defs4"></defs><g id="Reference" fill-opacity="1" transform="scale(1.2)"><path id="Orange_Light_BG" d="M0 0h75v75H0z" fill="#d86613" data-name="Orange Light BG"></path><g id="Product_Icon" fill="#ffffff" data-name="Product Icon"><path class="cls-2" id="path9" d="M60.5 62.5H48.18a1 1 0 0 1-.9-.57L29.86 25.5h-7.37a1 1 0 0 1-1-1v-11a1 1 0 0 1 1-1h15.4a1 1 0 0 1 .9.57L56.13 49.5h4.37a1 1 0 0 1 1 1v11a1 1 0 0 1-1 1zm-11.69-2H59.5v-9h-4a1 1 0 0 1-.9-.57L37.26 14.5H23.5v9h7a1 1 0 0 1 .9.57z" fill="#ffffff" fill-opacity="1"></path><path class="cls-2" id="path11" d="M27.48 62.5h-13a1 1 0 0 1-.85-.47 1 1 0 0 1-.05-1l13.6-28.41a1 1 0 0 1 .9-.57 1 1 0 0 1 .9.56L35.49 46a1 1 0 0 1 0 .87l-7.1 15a1 1 0 0 1-.91.63zm-11.4-2h10.77l6.63-14-5.39-11.15z" fill="#ffffff" fill-opacity="1"></path></g></g></svg></g></g><g opacity="1"><g id="ae850569-a239-485c-b436-dbaeb714e2ff" transform="translate(0 0)"><svg x="90" y="720" height="90" id="svg19" width="90" version="1.1"><defs id="defs4"></defs><g id="Reference" fill-opacity="1" transform="scale(1.2)"><path id="Purple_Light_BG" d="M0 0h75v75H0z" fill="#693cc5" data-name="Purple Light BG"></path><g id="Product_Icon" fill="#ffffff" data-name="Product Icon"><path class="cls-2" id="path9" d="M27.29 42.94a13 13 0 0 0 3.92.74 3.59 3.59 0 0 0 2.41-.68 2.56 2.56 0 0 0 .83-2 2.62 2.62 0 0 0-.78-2.12 4 4 0 0 0-2.56-.66 30.05 30.05 0 0 0-3.2.2V37l.39-6.17h7.53v1.67H30l-.27 4.19a11.13 11.13 0 0 1 2-.2 4.93 4.93 0 0 1 3.49 1.17 4.23 4.23 0 0 1 1.25 3.24 4.07 4.07 0 0 1-1.46 3.27 5.76 5.76 0 0 1-3.86 1.25 9.53 9.53 0 0 1-3.94-.83z" fill="#ffffff" fill-opacity="1"></path><path class="cls-2" id="path11" d="M43.63 36.94H44A4.62 4.62 0 0 1 47.28 38a3.83 3.83 0 0 1 1.2 3A4 4 0 0 1 47 44.21a6 6 0 0 1-3.91 1.21 9.51 9.51 0 0 1-3.83-.83v-1.65a12.4 12.4 0 0 0 3.83.74 3.69 3.69 0 0 0 2.42-.7 2.44 2.44 0 0 0 .84-2q0-2.49-3.15-2.49a18.11 18.11 0 0 0-2 .1v-1.36l4.33-4.73h-6.05v-1.69h8.4v1.63z" fill="#ffffff" fill-opacity="1"></path><path class="cls-2" id="path13" d="M37.5 56.5a1 1 0 0 1-.5-.14 33.17 33.17 0 0 0-10.48-4c-2.11-.38-9-2-9-7 0-2.26.87-3.76 2-5.66a15.66 15.66 0 0 0 2.71-8.21 14.58 14.58 0 0 0-2.38-7.93 1 1 0 0 1 .07-1.17l1.6-2a1 1 0 0 1 1.27-.24A13.69 13.69 0 0 0 29.54 22a12.33 12.33 0 0 0 7.38-2.32 1 1 0 0 1 1.16 0A12.33 12.33 0 0 0 45.46 22a13.69 13.69 0 0 0 6.77-1.86 1 1 0 0 1 1.27.24l1.6 2a1 1 0 0 1 .07 1.17 14.56 14.56 0 0 0-2.38 7.93c0 3.55 1.44 6 2.7 8.21 1.11 1.9 2 3.4 2 5.66 0 5-6.88 6.65-9 7a33.17 33.17 0 0 0-10.48 4 1 1 0 0 1-.51.15zM21.9 23a16.44 16.44 0 0 1 2.31 8.38c0 4.09-1.65 6.93-3 9.21-1 1.77-1.7 2.94-1.7 4.66 0 3.56 6.11 4.84 7.34 5.06a34.88 34.88 0 0 1 10.63 4 34.88 34.88 0 0 1 10.63-4c1.23-.22 7.34-1.5 7.34-5.06 0-1.72-.68-2.89-1.7-4.66-1.33-2.28-3-5.12-3-9.21A16.44 16.44 0 0 1 53.1 23l-.63-.78a15.44 15.44 0 0 1-7 1.72 14.43 14.43 0 0 1-8-2.3 14.43 14.43 0 0 1-8 2.3 15.44 15.44 0 0 1-7-1.72z" fill="#ffffff" fill-opacity="1"></path><path class="cls-2" id="path15" d="M37.5 62.5a1 1 0 0 1-.63-.22 30 30 0 0 0-11.25-5c-8.22-1.48-13.13-6-13.13-12a15.29 15.29 0 0 1 2.65-8.19c1.09-1.87 2-3.49 2-5.68a10.77 10.77 0 0 0-3.64-7.63 1 1 0 0 1-.14-1.48c0-.07 5.87-7.11 7.2-8.94a1 1 0 0 1 .78-.42 1 1 0 0 1 .82.32 10.34 10.34 0 0 0 7.35 3.66c2.79 0 5-1.24 7.13-4a1.08 1.08 0 0 1 1.66 0c2.14 2.8 4.34 4 7.13 4a10.34 10.34 0 0 0 7.35-3.66 1 1 0 0 1 .82-.32 1 1 0 0 1 .78.42c1.33 1.83 7.15 8.87 7.2 8.94a1 1 0 0 1 .24.77 1.09 1.09 0 0 1-.38.71 10.77 10.77 0 0 0-3.64 7.63c0 2.19.94 3.81 2 5.68a15.29 15.29 0 0 1 2.65 8.19c0 6-4.91 10.52-13.13 12a29.71 29.71 0 0 0-11.24 5 1 1 0 0 1-.58.22zM15.61 22.89a12.51 12.51 0 0 1 3.64 8.53c0 2.75-1.17 4.77-2.3 6.72-1.22 2.11-2.38 4.09-2.38 7.15 0 7.32 8.74 9.46 11.42 9.94a31.34 31.34 0 0 1 11.51 4.94A31.34 31.34 0 0 1 49 55.23c2.68-.48 11.42-2.62 11.42-9.94 0-3.06-1.16-5-2.38-7.15-1.13-2-2.3-4-2.3-6.72a12.51 12.51 0 0 1 3.64-8.53c-1.31-1.59-4.34-5.28-5.93-7.33a11.92 11.92 0 0 1-8 3.46 10.16 10.16 0 0 1-8-3.86 10.16 10.16 0 0 1-8 3.86 11.92 11.92 0 0 1-8-3.46c-1.45 2.05-4.53 5.74-5.84 7.33z" fill="#ffffff" fill-opacity="1"></path></g></g></svg></g></g></g><g pointer-events="auto"></g><g pointer-events="auto"><g opacity="1"><g id="f48f5b62-3c04-485e-ba02-1d36d81241b0" transform="translate(0 0)"><svg x="765" y="765" overflow="visible"><g transform="scale(1.2074767078498865) "><circle cx="0" cy="0" fill="#ffffff" r="37.5"></circle><svg width="75" height="75" x="-37.5" y="-37.5" style=""><svg xmlns="http://www.w3.org/2000/svg" viewBox="0 0 75 75"><defs><linearGradient id="RedGradient" x1="-2417.47" y1="-41.53" x2="-2523.54" y2="64.54" gradientTransform="rotate(180 -1216.5 24.5)" gradientUnits="userSpaceOnUse"><stop offset="0" stop-color="#bd0816"></stop><stop offset="1" stop-color="#ff5252"></stop></linearGradient></defs><g id="Reference"><path id="Red_Gradient" data-name="Red Gradient" fill="url(#RedGradient)" d="M0 0h75v75H0z"></path><g id="Icon_Test" data-name="Icon Test" fill="#fff"><path d="M59.7 19H15.3a2.81 2.81 0 0 0-2.8 2.8v31.4a2.81 2.81 0 0 0 2.8 2.8h44.4a2.81 2.81 0 0 0 2.8-2.8V21.8a2.81 2.81 0 0 0-2.8-2.8zm.8 34.2a.8.8 0 0 1-.8.8H15.3a.8.8 0 0 1-.8-.8V21.8a.8.8 0 0 1 .8-.8h44.4a.8.8 0 0 1 .8.8z"></path><path d="M40.5 32h10v2h-10zM54.5 32h2v2h-2zM36.21 35.3a1 1 0 0 0-.71-.3h-14v-5a3.63 3.63 0 0 1 1.5-2.85A5.74 5.74 0 0 1 26.5 26a5.55 5.55 0 0 1 3.6 1.26A3.64 3.64 0 0 1 31.5 30v5h2v-5.4a5.07 5.07 0 0 0-2.11-4A7.92 7.92 0 0 0 26.5 24c-3.86 0-7 2.51-7 5.59V35h-2a1 1 0 0 0-1 1v14a1 1 0 0 0 1 1h18a1 1 0 0 0 1-1V36a1 1 0 0 0-.29-.7zM34.5 40h-3v2h3v2h-3v2h3v3h-16V37h16z"></path><path d="M26.5 38.57a2.93 2.93 0 0 0-1 5.68V47h2v-2.75a2.93 2.93 0 0 0-1-5.68zm0 4.2a1.27 1.27 0 1 1 1.27-1.27 1.27 1.27 0 0 1-1.27 1.27zM40.5 37h7v2h-7zM51.5 37h5v2h-5zM40.5 42h13v2h-13z"></path></g></g></svg></svg></g></svg></g></g><g opacity="1"><g id="f68356f2-fcec-471b-a29b-8993904eeb02" transform="translate(0 0)"><svg x="765" y="945" overflow="visible"><g transform="scale(1.2074767078498865) "><circle cx="0" cy="0" fill="#ffffff" r="37.5"></circle><svg width="75" height="75" x="-37.5" y="-37.5" style=""><svg xmlns="http://www.w3.org/2000/svg" width="75" height="75" viewBox="0 0 75 75"><defs><linearGradient id="Blue_Gradient" x1="-20.83" y1="131.69" x2="-20.83" y2="-18.31" gradientTransform="rotate(45 31.5 117.498)" gradientUnits="userSpaceOnUse"><stop offset="0" stop-color="#2e27ad"></stop><stop offset="1" stop-color="#527fff"></stop></linearGradient></defs><g id="Working"><path id="Green_Gradient" data-name="Green Gradient" fill="url(#Blue_Gradient)" d="M0 0h75v75H0z"></path><path d="M56 47l-8.49-4.75V32.9A1 1 0 0 0 47 32l-9-5a1 1 0 0 0-1 0l-9 5a1 1 0 0 0-.49.86v9.37L19 47a1 1 0 0 0-.49.87v11a1 1 0 0 0 .5.87l9 5.13a1.05 1.05 0 0 0 .49.13 1.13 1.13 0 0 0 .5-.13L37.51 60l8.54 4.76a1.05 1.05 0 0 0 .49.13.94.94 0 0 0 .48-.13l9-5a1 1 0 0 0 .51-.87v-11A1 1 0 0 0 56 47zM29.54 34.62l7 3.87v7.69l-7-3.89zm16 7.65l-7 3.91V38.5l7-3.9zm-7 7.32l7 4v8.65l-7-3.92zm1-1.7l7-3.88 7 3.9-6.94 3.92zm-2-18.84l6.93 3.85-7 3.86-6.91-3.84zm-17 20.56l7 3.92v8.76l-7-4zm8 2.18l-7-3.88 7-3.89 6.92 3.86zm8 6.5l-7 4v-8.77l7-3.93zm18 0l-7 3.89v-8.62l7-3.94zm11.19-22a10.26 10.26 0 0 1-7.63 10.39l-.61-1.91a8.26 8.26 0 0 0 6.22-8.46c0-6.8-5.6-8.49-8-8.91a1 1 0 0 1-.82-1.13c-.24-3.1-1.69-5.32-3.89-6a4.62 4.62 0 0 0-5 1.81 1 1 0 0 1-1.75-.26A15.5 15.5 0 0 0 40.66 16a12.7 12.7 0 0 0-14.43-2.9c-4.24 1.79-7.56 7-7.56 11.77a14.35 14.35 0 0 0 .09 1.61 1 1 0 0 1-.76 1.08 8.36 8.36 0 0 0-6.73 8.66v.58a8.89 8.89 0 0 0 7 8.13l-.45 1.94a10.88 10.88 0 0 1-8.51-10v-.68a10.22 10.22 0 0 1 7.39-10.32v-1c0-5.64 3.77-11.5 8.78-13.62a14.72 14.72 0 0 1 16.63 3.31 16.94 16.94 0 0 1 3.45 5.13 6.51 6.51 0 0 1 6-1.31c2.9.85 4.84 3.52 5.28 7.21 2.82.66 8.87 2.99 8.87 10.72z" fill="#fff"></path></g></svg></svg></g></svg></g></g><g opacity="1"><g id="1a359dce-cfb5-416c-bc56-43f5fd5e6e90" transform="translate(0 0)"><svg x="495" y="945" overflow="visible"><g transform="scale(1.2074767078498865) "><circle cx="0" cy="0" fill="#ffffff" r="37.5"></circle><svg width="75" height="75" x="-37.5" y="-37.5" style=""><svg xmlns="http://www.w3.org/2000/svg" viewBox="0 0 75 75"><defs><linearGradient id="PinkGradient" x1="124.6" y1="296.78" x2="124.6" y2="146.78" gradientTransform="rotate(45 303.5 24.504)" gradientUnits="userSpaceOnUse"><stop offset="0" stop-color="#b0084d"></stop><stop offset="1" stop-color="#ff4f8b"></stop></linearGradient></defs><g id="Reference"><path id="Pink_Gradient" data-name="Pink Gradient" fill="url(#PinkGradient)" d="M0 0h75v75H0z"></path><g id="Icon_Test" data-name="Icon Test"><path d="M62.5 35a8 8 0 0 1-7.5 8.12H40.5v-2H55c.14 0 5.55-.6 5.55-6.13 0-4.64-3.88-5.8-5.54-6.09a1 1 0 0 1-.82-1.14c0-2-.84-3.43-2.31-3.91A3.22 3.22 0 0 0 48.23 25a1 1 0 0 1-1 .39 1 1 0 0 1-.79-.65A10.84 10.84 0 0 0 44 20.65a8.94 8.94 0 0 0-10.1-2 9 9 0 0 0-4.4 4.47h-2.2a11.16 11.16 0 0 1 5.79-6.31 10.94 10.94 0 0 1 12.29 2.42 12.33 12.33 0 0 1 2.4 3.44 5.2 5.2 0 0 1 4.67-.67 5.56 5.56 0 0 1 3.66 5.15c3.22.77 6.39 3.2 6.39 7.85zm-28-.87v-7h-20v30h20v-17h2v18a1 1 0 0 1-1 1h-22a1 1 0 0 1-1-1v-32a1 1 0 0 1 1-1h22a1 1 0 0 1 1 1v8zm13 2h-30v2h30zm-22-5h-8v2h8zm3 10h-11v2h11zm-4.09 5h-6.87v2h6.87zm7.09 0h-5v2h5zm22-10h-4v2h4z" fill="#fff"></path></g></g></svg></svg></g></svg></g></g></g><g pointer-events="auto"><g opacity="1"><g id="7da880de-0e50-49fb-b16c-4749d0b374f2" transform="translate(0 0)"><svg x="57" y="407" overflow="visible"><text stroke="#ffffff" stroke-width="0" font-family="Open Sans" y="26.24" font-size="16pt" fill="#000000" font-weight="bold" transform="" xml:space="preserve"><tspan x="8" dy="0">API Gateway</tspan></text><text font-family="Open Sans" y="26.24" font-size="16pt" fill="#000000" font-weight="bold" transform="" xml:space="preserve"><tspan x="8" dy="0">API Gateway</tspan></text></svg></g></g><g opacity="1"><g id="c53f24f4-b035-408f-976e-79d61059c114" transform="translate(0 0)"><svg x="794" y="405" overflow="visible"><text stroke="#ffffff" stroke-width="0" font-family="Open Sans" y="26.24" font-size="16pt" fill="#000000" font-weight="bold" transform="" xml:space="preserve"><tspan x="8" dy="0">DynamoDB</tspan></text><text font-family="Open Sans" y="26.24" font-size="16pt" fill="#000000" font-weight="bold" transform="" xml:space="preserve"><tspan x="8" dy="0">DynamoDB</tspan></text></svg></g></g><g opacity="1"><g id="2c1fb3cb-69ff-4701-bba8-10cc9f2d07e3" transform="translate(0 0)"><svg x="710" y="812" overflow="visible"><text stroke="#ffffff" stroke-width="0" font-family="Open Sans" y="26.24" font-size="16pt" fill="#000000" font-weight="bold" transform="" xml:space="preserve"><tspan x="8" dy="0">IAM Role</tspan></text><text font-family="Open Sans" y="26.24" font-size="16pt" fill="#000000" font-weight="bold" transform="" xml:space="preserve"><tspan x="8" dy="0">IAM Role</tspan></text></svg></g></g><g opacity="1"><g id="d03bdc87-a93c-427e-ba7f-55c860112434" transform="translate(0 0)"><svg x="82" y="810" overflow="visible"><text stroke="#ffffff" stroke-width="0" font-family="Open Sans" y="26.24" font-size="16pt" fill="#000000" font-weight="bold" transform="" xml:space="preserve"><tspan x="8" dy="0">Route53</tspan></text><text font-family="Open Sans" y="26.24" font-size="16pt" fill="#000000" font-weight="bold" transform="" xml:space="preserve"><tspan x="8" dy="0">Route53</tspan></text></svg></g></g><g opacity="1"><g id="1e9c38ec-917d-4b65-b500-d2219b439513" transform="translate(0 0)"><svg x="734" y="990" overflow="visible"><text stroke="#ffffff" stroke-width="0" font-family="Open Sans" y="26.24" font-size="16pt" fill="#000000" font-weight="bold" transform="" xml:space="preserve"><tspan x="8" dy="0">CDK</tspan></text><text font-family="Open Sans" y="26.24" font-size="16pt" fill="#000000" font-weight="bold" transform="" xml:space="preserve"><tspan x="8" dy="0">CDK</tspan></text></svg></g></g></g><g></g></g></svg>